<?xml version="1.0" ?><!DOCTYPE svg  PUBLIC '-//W3C//DTD SVG 1.1//EN'  'http://www.w3.org/Graphics/SVG/1.1/DTD/svg11.dtd'><svg height="512px" id="形状_1_1_" style="enable-background:new 0 0 512 512;" version="1.1" viewBox="0 0 512 512" width="512px" xml:space="preserve" xmlns="http://www.w3.org/2000/svg" xmlns:xlink="http://www.w3.org/1999/xlink"><g id="形状_1"><g><path d="M418.615,94.348c-36.668-36.913-86.122-63.25-155.484-67.162    h-14.26c-68.906,3.793-118.873,30.32-155.482,66.932c-36.442,36.442-63.694,85.632-67.162,155.023    c0.038,0.268-0.051,0.409-0.23,0.46v13.801c3.622,69.656,30.726,118.34,67.392,155.253c36.665,36.912,86.129,63.239,155.483,67.16    h14.03c70.734-3.48,117.595-30.83,155.715-66.931c36.286-38.005,63.867-84.713,67.389-155.482v-13.801    C482.384,179.943,455.28,131.26,418.615,94.348z M443.915,334.933c-19.415,47.584-54.45,82.069-98.904,104.422    c-22.68,11.404-50.058,18.505-81.65,20.01c-32.937,1.568-62.186-5.432-85.792-15.409c-47.733-20.18-82.227-53.382-104.881-98.443    c-11.474-22.821-18.736-49.594-20.24-81.421c-2.386-50.485,14.09-88.984,33.121-118.913    c19.495-30.662,47.379-54.582,81.191-71.301c11.108-5.493,23.364-10.142,37.03-13.801c13.77-3.688,28.858-5.678,44.853-6.44    c32.536-1.549,62.917,5.672,86.253,15.411c24.052,10.037,44.461,23.925,61.408,40.25c34.256,32.994,60.214,76.262,63.252,140.073    C461.161,283.055,453.736,310.863,443.915,334.933z M327.763,267.771V202.68h-34.501v32.661    c-15.682,10-31.219,20.148-47.151,29.899c-2.505-1.633-5.304-2.973-7.588-4.83c15.413-9.962,30.448-20.307,46-30.13    c-6.427-4.846-13.281-9.263-20.242-13.571c-15.522,9.934-31.108,19.799-46.69,29.671c-2.346-1.795-5.013-3.266-7.36-5.06    c15.454-9.848,30.689-19.913,46.231-29.671c-6.879-5.234-14.334-9.895-21.621-14.721c-19.865,12.722-39.558,25.611-59.573,38.181    c-4.714-14.242-14.877-25.679-29.21-30.13c-16.21-5.035-38.663-0.945-59.11-2.3v95.912c16.357-0.758,32.491,1.016,46.691,0    c22.768-1.633,36.529-15.447,42.322-33.81c20,13.043,39.307,26.781,59.341,39.789c19.238-12.273,38.835-25.412,57.96-37.031    v31.052h65.092V268C348.232,267.848,337.501,268.307,327.763,267.771z M139.157,264.782c-4.851,3.736-11.101,3.259-19.319,3.218    v-34.499c-0.021-0.327-0.038-0.652,0.229-0.691c9.961-0.638,17.139,0.391,21.391,5.29    C147.828,245.442,146.375,259.222,139.157,264.782z M401.824,202.68h-34.5c-0.27,0.038-0.25,0.362-0.23,0.689v95.223h65.091V268    h-30.36V202.68z" style="fill-rule:evenodd;clip-rule:evenodd;fill:#0083CA;"/></g></g></svg>