<?xml version="1.0" ?><svg enable-background="new 0 0 370.505 92.705" id="Layer_1" version="1.1" viewBox="0 0 370.505 92.705" xml:space="preserve" xmlns="http://www.w3.org/2000/svg" xmlns:xlink="http://www.w3.org/1999/xlink"><g><path d="M108.149,43.531c1.248-0.453,2.271-1.112,3.047-1.973c1.158-1.282,1.743-2.923,1.743-4.869   c0-2.821-1.052-4.918-3.127-6.238c-2.022-1.282-5.152-1.908-9.572-1.908h-9.666v31.715h11.801c3.609,0,6.472-0.818,8.508-2.429   c2.082-1.641,3.134-3.945,3.134-6.849C114.018,47.178,112.045,44.678,108.149,43.531z M106.426,40.544   c-1.056,0.717-2.859,1.079-5.371,1.079h-5.578v-8.844h4.918c2.693,0,4.669,0.351,5.865,1.056c1.109,0.652,1.648,1.701,1.648,3.21   C107.908,38.723,107.421,39.862,106.426,40.544z M95.477,45.794h5.82c2.61,0,4.563,0.415,5.804,1.241   c1.18,0.781,1.754,1.991,1.754,3.696c0,1.852-0.566,3.168-1.731,4.009c-1.203,0.875-3.059,1.32-5.518,1.32h-6.129V45.794z" fill="#114560"/><rect fill="#114560" height="24.066" width="4.812" x="118.762" y="36.192"/><path d="M119.264,28.389c-0.535,0.483-0.807,1.214-0.807,2.18c0,0.943,0.268,1.671,0.796,2.165   c0.52,0.487,1.173,0.732,1.939,0.732c0.736,0,1.377-0.245,1.905-0.724c0.551-0.494,0.834-1.226,0.834-2.172   c0-0.954-0.283-1.682-0.837-2.169C122.006,27.438,120.275,27.48,119.264,28.389z" fill="#114560"/><path d="M138.272,35.773c-3.032,0-5.423,0.736-7.109,2.18c-1.712,1.463-2.58,3.564-2.58,6.238   c0,1.614,0.43,3.074,1.275,4.334c0.637,0.947,1.422,1.693,2.342,2.229c-0.641,0.452-1.135,0.92-1.497,1.407   c-0.543,0.728-0.819,1.58-0.819,2.542c0,0.864,0.249,1.633,0.743,2.289c0.185,0.245,0.389,0.472,0.615,0.671   c-1.222,0.43-2.225,1.06-2.987,1.886c-1.037,1.124-1.561,2.478-1.561,4.009c0,2.233,0.95,3.983,2.825,5.209   c1.795,1.173,4.356,1.769,7.607,1.769c4.198,0,7.453-0.702,9.678-2.086c2.312-1.437,3.489-3.553,3.489-6.291   c0-2.176-0.788-3.862-2.338-5.02c-1.494-1.116-3.636-1.682-6.359-1.682h-4.269c-1.516,0-2.203-0.204-2.512-0.377   c-0.362-0.196-0.513-0.46-0.513-0.882c0-0.909,0.603-1.682,1.844-2.338c0.615,0.094,1.263,0.143,1.927,0.143   c2.942,0,5.303-0.72,7.015-2.142c1.742-1.445,2.629-3.402,2.629-5.816c0-1.06-0.177-2.029-0.528-2.885   c-0.185-0.449-0.385-0.86-0.6-1.222l4.009-0.453v-3.293h-8.837C140.72,35.913,139.547,35.773,138.272,35.773z M143.684,65.497   c-1.373,0.811-3.564,1.222-6.513,1.222c-1.939,0-3.432-0.298-4.435-0.882c-0.916-0.535-1.362-1.294-1.362-2.316   c0-1.233,0.385-2.15,1.169-2.795c0.815-0.66,1.995-0.996,3.508-0.996h4.375c2.629,0,3.768,0.351,4.258,0.641   c0.622,0.373,0.928,1.049,0.928,2.082C145.612,63.732,144.978,64.731,143.684,65.497z M138.182,48.393   c-1.55,0-2.761-0.366-3.598-1.09c-0.83-0.713-1.229-1.757-1.229-3.198c0-1.554,0.404-2.727,1.203-3.485   c0.811-0.766,2.006-1.158,3.56-1.158c3.296,0,4.831,1.456,4.831,4.582C142.949,47.013,141.437,48.393,138.182,48.393z" fill="#114560"/><path d="M164.303,40.009c0.694,0,1.505,0.094,2.41,0.287c0.913,0.196,1.773,0.441,2.553,0.739l0.543,0.207   l1.516-3.987l-0.479-0.234c-0.701-0.339-1.667-0.637-2.863-0.879c-1.188-0.245-2.395-0.37-3.591-0.37   c-3.745,0-6.679,1.117-8.731,3.323c-2.037,2.188-3.066,5.31-3.066,9.274c0,3.866,1.018,6.917,3.025,9.059   c2.018,2.15,4.888,3.24,8.527,3.24c2.527,0,4.662-0.415,6.351-1.245l0.324-0.162V54.98l-0.792,0.305   c-2.037,0.792-4.047,1.192-5.97,1.192c-2.18,0-3.768-0.668-4.858-2.037c-1.105-1.392-1.667-3.451-1.667-6.114   C157.537,42.728,159.751,40.009,164.303,40.009z" fill="#114560"/><path d="M185.303,35.773c-3.64,0-6.536,1.113-8.607,3.308c-2.059,2.184-3.108,5.254-3.108,9.12   c0,2.493,0.479,4.707,1.429,6.574c0.954,1.893,2.335,3.36,4.1,4.379c1.75,1.007,3.779,1.516,6.027,1.516   c3.64,0,6.544-1.116,8.629-3.326c2.074-2.195,3.13-5.273,3.13-9.142c0-3.768-1.056-6.811-3.142-9.044   C191.673,36.912,188.826,35.773,185.303,35.773z M185.235,56.604c-2.225,0-3.854-0.679-4.982-2.078   c-1.139-1.418-1.72-3.545-1.72-6.325c0-2.802,0.573-4.918,1.697-6.298c1.113-1.358,2.734-2.022,4.96-2.022   c2.259,0,3.907,0.675,5.039,2.056c1.147,1.399,1.727,3.504,1.727,6.264c0,2.787-0.581,4.918-1.731,6.332   C189.093,55.928,187.46,56.604,185.235,56.604z" fill="#114560"/><path d="M228.487,35.773c-1.829,0-3.485,0.373-4.925,1.109c-1.184,0.607-2.157,1.403-2.893,2.372   c-1.38-2.312-3.904-3.481-7.535-3.481c-1.633,0-3.138,0.336-4.469,1.003c-0.977,0.49-1.806,1.131-2.47,1.901l-0.468-2.486h-4.035   v24.066h4.812V47.66c0-2.817,0.494-4.85,1.463-6.038c0.939-1.158,2.478-1.742,4.575-1.742c1.569,0,2.716,0.396,3.417,1.18   c0.72,0.792,1.086,2.044,1.086,3.715v15.482h4.812v-13.37c0-2.421,0.498-4.217,1.482-5.344c0.962-1.101,2.508-1.663,4.598-1.663   c1.554,0,2.693,0.396,3.402,1.18c0.713,0.792,1.079,2.044,1.079,3.715v15.482h4.816V44.734c0-3.074-0.747-5.363-2.214-6.8   C233.559,36.497,231.361,35.773,228.487,35.773z" fill="#114560"/><path d="M269.939,35.773c-1.833,0-3.485,0.373-4.925,1.109c-1.188,0.607-2.161,1.403-2.897,2.372   c-1.377-2.312-3.904-3.481-7.528-3.481c-1.637,0-3.145,0.336-4.477,1.003c-0.981,0.49-1.807,1.131-2.467,1.901l-0.475-2.486h-4.032   v24.066h4.812V47.66c0-2.817,0.494-4.85,1.467-6.038c0.943-1.158,2.482-1.742,4.575-1.742c1.565,0,2.712,0.396,3.417,1.18   c0.717,0.792,1.082,2.044,1.082,3.715v15.482h4.812v-13.37c0-2.425,0.498-4.22,1.482-5.344c0.962-1.101,2.512-1.663,4.597-1.663   c1.554,0,2.697,0.396,3.398,1.18c0.72,0.792,1.086,2.044,1.086,3.715v15.482h4.805V44.734c0-3.074-0.743-5.363-2.203-6.8   C275.008,36.497,272.81,35.773,269.939,35.773z" fill="#114560"/><path d="M294.405,35.773c-3.383,0-6.125,1.162-8.143,3.459c-2.003,2.27-3.021,5.359-3.021,9.18   c0,3.805,1.101,6.834,3.266,8.999c2.161,2.165,5.141,3.259,8.844,3.259c1.659,0,3.1-0.117,4.285-0.351   c1.18-0.238,2.448-0.634,3.768-1.173l0.362-0.151v-4.341l-0.803,0.321c-2.455,0.999-4.971,1.505-7.479,1.505   c-2.289,0-4.077-0.641-5.314-1.912c-1.143-1.177-1.799-2.9-1.954-5.137h16.579v-2.772c0-3.232-0.939-5.876-2.795-7.868   C300.134,36.788,297.581,35.773,294.405,35.773z M294.364,39.839c1.746,0,3.044,0.505,3.96,1.55   c0.841,0.947,1.301,2.308,1.384,4.058h-11.349c0.253-1.675,0.856-3.013,1.795-3.99C291.196,40.371,292.576,39.839,294.364,39.839z" fill="#114560"/><path d="M320.987,35.773c-1.614,0-3.119,0.441-4.465,1.305c-0.992,0.63-1.878,1.471-2.659,2.5l-0.332-3.387h-4.122   v24.066h4.813V47.389c0-2.112,0.63-3.824,1.927-5.231c1.279-1.392,2.78-2.067,4.579-2.067c0.717,0,1.561,0.098,2.519,0.298   l0.596,0.124l0.69-4.367l-0.551-0.109C323.099,35.86,322.092,35.773,320.987,35.773z" fill="#114560"/><path d="M337.713,40.009c0.694,0,1.505,0.094,2.414,0.287c0.913,0.196,1.773,0.441,2.553,0.739l0.543,0.207   l1.512-3.987l-0.479-0.234c-0.702-0.339-1.663-0.637-2.863-0.879c-1.188-0.245-2.391-0.37-3.591-0.37   c-3.741,0-6.679,1.117-8.727,3.323c-2.036,2.188-3.07,5.31-3.07,9.274c0,3.866,1.018,6.917,3.025,9.059   c2.022,2.15,4.888,3.24,8.527,3.24c2.531,0,4.662-0.415,6.355-1.245l0.324-0.162V54.98l-0.792,0.305   c-2.04,0.792-4.047,1.192-5.974,1.192c-2.18,0-3.764-0.668-4.854-2.037c-1.105-1.392-1.667-3.451-1.667-6.114   C330.951,42.728,333.161,40.009,337.713,40.009z" fill="#114560"/><path d="M368.549,46.658c0-3.232-0.939-5.876-2.795-7.868c-1.867-2.003-4.42-3.017-7.596-3.017   c-3.383,0-6.125,1.162-8.147,3.459c-1.999,2.27-3.013,5.359-3.013,9.18c0,3.805,1.098,6.834,3.262,8.999   c2.161,2.165,5.133,3.259,8.844,3.259c1.66,0,3.1-0.117,4.285-0.351c1.18-0.238,2.448-0.634,3.764-1.173l0.362-0.151v-4.341   l-0.8,0.321c-2.455,0.999-4.971,1.505-7.479,1.505c-2.293,0-4.077-0.641-5.31-1.912c-1.147-1.177-1.807-2.9-1.958-5.137h16.58   L368.549,46.658L368.549,46.658z M358.117,39.839c1.746,0,3.044,0.505,3.964,1.55c0.834,0.947,1.297,2.308,1.38,4.058h-11.356   c0.26-1.675,0.86-3.013,1.799-3.99C354.949,40.371,356.33,39.839,358.117,39.839z" fill="#114560"/></g><g opacity="0.6"><path d="M26.111,32.802c9.583,0,18.333,2.655,25.058,7.034c2.949-3.734,4.673-8.079,4.673-12.74   c0-13.777-14.803-24.949-33.065-24.949C4.512,2.147,2,13.318,2,27.096c0,6.306,0.547,12.05,2.874,16.444   C7.929,36.988,14.069,32.802,26.111,32.802z" fill="#00A9C7"/><path d="M51.169,39.835c-5.767,7.302-16.308,12.208-28.392,12.208c-9.904,0-15.154-3.3-17.903-8.505   C2.547,48.513,2,54.845,2,61.751c0,15.987,2.915,28.954,24.111,28.954c21.196,0,38.371-12.966,38.371-28.954   C64.483,52.99,59.319,45.146,51.169,39.835z" fill="#00A9C7"/></g><path d="M4.874,43.539c2.749,5.205,7.999,8.505,17.903,8.505c12.084,0,22.625-4.907,28.392-12.208  c-6.725-4.379-15.475-7.034-25.058-7.034C14.069,32.802,7.929,36.988,4.874,43.539z" fill="#00A9C7"/></svg>